<svg id="Layer_1" data-name="Layer 1" xmlns="http://www.w3.org/2000/svg" viewBox="0 0 800 67"><defs><style>.cls-1{fill:#ccc}</style></defs><title>WR_full_logo_v1</title><g id="_Group_" data-name="&lt;Group&gt;"><path id="_Compound_Path_" data-name="&lt;Compound Path&gt;" class="cls-1" d="M25 8.59h16l12.61 29.63 7.6-19.68L65 8.59h8l12.55 29.53L97 8.59h15.92l-26 64.91h-2.09l-15.4-36.22L54.55 73.5h-2zm59.93 37l-14.67-34h-2.43l-2.67 6.91L55 45.34h-2.12L38.21 11.53h-8l23.3 54.75L68.7 29.53h1.46l15.6 36.85 22.06-54.86h-7.91" transform="translate(-25 -6.5)"/><path id="_Compound_Path_2" data-name="&lt;Compound Path&gt;" class="cls-1" d="M150.68 6.5c19.66 0 33.61 14.76 33.61 33.5s-13.94 33.5-33.61 33.5-33.61-14.76-33.61-33.5 13.84-33.5 33.61-33.5zm0 63.86c17.27 0 29.76-13.3 29.76-30.36S168 9.43 150.68 9.43 120.92 22.94 120.92 40s12.39 30.36 29.76 30.36zm0-52.24c13.32 0 22.06 9.63 22.06 21.88S164 62.19 150.68 62.19 128.62 52.25 128.62 40s8.64-21.88 22.06-21.88zm0 40.83c11 0 18.1-8.38 18.1-18.95s-7.08-18.95-18.1-18.95-18.1 8.38-18.1 18.95 6.97 18.95 18.1 18.95z" transform="translate(-25 -6.5)"/><path id="_Compound_Path_3" data-name="&lt;Compound Path&gt;" class="cls-1" d="M196.45 8.59h26.12c13.42 0 22.16 8.17 22.16 20 0 11-5.51 17.17-14.77 19.47l16.86 23.35h-19.15L211.75 48v23.41h-15.3zm11.45 59.89V46h6.87l15.29 22.51h10.3l-15.61-21.7v-.94c10.61-1.26 16.13-6.6 16.13-16.65 0-10.78-7.91-17.69-18.31-17.69H200.3v57zm0-49.73h15.71a9.77 9.77 0 0 1 10 9.84c0 5.55-3.85 10.15-9.57 10.15H207.9zM224 35.81c3.43 0 5.72-3.56 5.72-7.22s-2.71-6.91-6.14-6.91h-11.83v14.13z" transform="translate(-25 -6.5)"/><path id="_Compound_Path_4" data-name="&lt;Compound Path&gt;" class="cls-1" d="M256.07 8.59h15.29v49.63h27.16v13.19h-42.45zm38.6 59.88v-7.32h-27.16V11.53h-7.6v57z" transform="translate(-25 -6.5)"/><path id="_Compound_Path_5" data-name="&lt;Compound Path&gt;" class="cls-1" d="M307.67 8.59h21.74c18.42 0 32.67 13.61 32.67 31.3 0 16.75-12.69 31.51-32.67 31.51h-21.74zm21.74 59.88c17.59 0 28.82-13.4 28.82-28.58 0-16-12.59-28.37-28.82-28.37h-17.9v57zm-10.3-48.89h10c13.11 0 21.12 8.9 21.12 20.31 0 12.35-9.16 20.41-21.12 20.41h-10zm10 37.79c9.78 0 17.27-6.91 17.27-17.48 0-9.74-6.55-17.38-17.27-17.38H323v34.87z" transform="translate(-25 -6.5)"/><path id="_Compound_Path_6" data-name="&lt;Compound Path&gt;" class="cls-1" d="M401.1 8.59h26.12c13.42 0 22.16 8.17 22.16 20 0 11-5.51 17.17-14.77 19.47l16.86 23.35h-19.16L416.39 48v23.41H401.1zm11.44 59.88V46h6.87l15.29 22.48H445l-15.6-21.67v-.94c10.61-1.26 16.13-6.6 16.13-16.65 0-10.78-7.91-17.69-18.31-17.69h-22.27v57zm0-49.73h15.71a9.77 9.77 0 0 1 10 9.84c0 5.55-3.85 10.15-9.57 10.15h-16.14zm16.13 17.06c3.43 0 5.72-3.56 5.72-7.22s-2.71-6.91-6.14-6.91h-11.86v14.14z" transform="translate(-25 -6.5)"/><path id="_Compound_Path_7" data-name="&lt;Compound Path&gt;" class="cls-1" d="M460.74 8.59H502V22.2h-26v11.31h24v13.4h-24v11.31h27.16v13.19h-42.42zm38.6 59.88v-7.32h-27.16V44h24v-7.56h-24V19.27h26v-7.74h-33.59v57z" transform="translate(-25 -6.5)"/><path id="_Compound_Path_8" data-name="&lt;Compound Path&gt;" class="cls-1" d="M546.45 6.5c11.86 0 20.08 4.5 26.74 11.52l-10.51 10.05a23.13 23.13 0 0 0-16.23-7c-11.13 0-18.31 8.37-18.31 18.95s7.18 18.95 18.31 18.95a23.14 23.14 0 0 0 16.23-7l10.2 10a35.35 35.35 0 0 1-26.43 11.53c-19.77 0-33.81-14.76-33.81-33.5s14.04-33.5 33.81-33.5zm0 64.07c9.16 0 16-2.93 21.85-8.38l-5.93-6.07a24.57 24.57 0 0 1-15.92 5.76c-13.42 0-22.26-9.63-22.26-21.88s8.81-21.88 22.26-21.88a26.71 26.71 0 0 1 16.13 5.65l5.93-5.77c-5.51-5.65-12.69-8.59-22.06-8.59-17.38 0-30 13.51-30 30.57s12.62 30.59 30 30.59z" transform="translate(-25 -6.5)"/><path id="_Compound_Path_9" data-name="&lt;Compound Path&gt;" class="cls-1" d="M613.25 6.5c19.66 0 33.61 14.76 33.61 33.5s-13.94 33.5-33.61 33.5-33.6-14.76-33.6-33.5 13.83-33.5 33.6-33.5zm0 63.86C630.52 70.36 643 57.06 643 40S630.52 9.43 613.25 9.43 583.49 22.94 583.49 40s12.39 30.36 29.76 30.36zm0-52.24c13.32 0 22.06 9.63 22.06 21.88s-8.74 22.19-22.06 22.19-22.06-9.94-22.06-22.19 8.64-21.88 22.06-21.88zm0 40.83c11 0 18.1-8.38 18.1-18.95s-7.08-18.95-18.1-18.95-18.1 8.38-18.1 18.95 6.97 18.95 18.1 18.95z" transform="translate(-25 -6.5)"/><path id="_Compound_Path_10" data-name="&lt;Compound Path&gt;" class="cls-1" d="M659 8.59h26.12c13.42 0 22.16 8.17 22.16 20 0 11-5.51 17.17-14.77 19.47l16.86 23.35h-19.13L674.32 48v23.41H659zm11.44 59.88V46h6.87l15.29 22.51h10.3l-15.57-21.7v-.94c10.61-1.26 16.13-6.6 16.13-16.65 0-10.78-7.91-17.69-18.31-17.69h-22.27v57zm0-49.73h15.71a9.77 9.77 0 0 1 10 9.84c0 5.55-3.85 10.15-9.57 10.15h-16.11zm16.16 17.07c3.43 0 5.72-3.56 5.72-7.22s-2.71-6.91-6.14-6.91h-11.86v14.13z" transform="translate(-25 -6.5)"/><path id="_Compound_Path_11" data-name="&lt;Compound Path&gt;" class="cls-1" d="M718.67 8.59h21.74c18.42 0 32.67 13.61 32.67 31.3 0 16.75-12.69 31.51-32.67 31.51h-21.74zm21.74 59.88c17.59 0 28.82-13.4 28.82-28.58 0-16-12.59-28.37-28.82-28.37h-17.9v57zm-10.3-48.89h10c13.11 0 21.12 8.9 21.12 20.31 0 12.35-9.16 20.41-21.12 20.41h-10zm10 37.79c9.78 0 17.27-6.91 17.27-17.48 0-9.74-6.55-17.38-17.27-17.38H734v34.87z" transform="translate(-25 -6.5)"/><path id="_Compound_Path_12" data-name="&lt;Compound Path&gt;" class="cls-1" d="M797.43 53a6.53 6.53 0 0 0 6.45 6.59c3.85 0 6.24-2.2 6.24-5.44 0-4.71-6.14-6.07-11.24-7.85-10.51-3.77-16.34-8.69-16.34-19.47 0-11.1 9.47-20.31 21.23-20.31C817.61 6.5 824.17 15.4 825 27h-14.36c0-3.56-2.18-6.49-6.45-6.49-3.33 0-6.55 2-6.55 6.07 0 4.71 5.72 5.55 11 7.12C819.8 37.07 825 43.35 825 53.19c0 11.1-9.36 20.31-21.12 20.31-13.63 0-21.33-9.21-21.33-20.52zm6.45 17.59a17.55 17.55 0 0 0 17.58-17.38c0-10.57-6.24-14.45-15.82-17.17-6.14-1.78-11.44-3.25-11.44-9.42 0-5.44 4.06-9 9.68-9 6.45 0 8.64 3.87 9.57 6.49h7.8c-.63-6.18-5.2-14.66-17.38-14.66-9.68 0-17.79 7.85-17.79 17.38 0 7.75 2.91 12.67 14.36 16.75 5.93 2.2 13.11 3.77 13.11 10.57 0 5.55-4.79 8.37-9.68 8.37-5.31-.1-8.64-3.14-9.57-6.59h-8.12c.22 7.83 7.82 14.64 17.7 14.64z" transform="translate(-25 -6.5)"/></g></svg>