<svg id="Layer_1" data-name="Layer 1" xmlns="http://www.w3.org/2000/svg" viewBox="0 0 800 67"><defs><style>.cls-1{fill:#cccccc;}</style></defs><title>WR_full_logo_v1</title><g id="_Group_" data-name="&lt;Group&gt;"><path id="_Compound_Path_" data-name="&lt;Compound Path&gt;" class="cls-1" d="M25,8.59H41L53.61,38.22l7.6-19.68L65,8.59h8L85.55,38.12,97,8.59h15.92l-26,64.91H84.83L69.43,37.28,54.55,73.5h-2Zm59.93,37-14.67-34H67.83l-2.67,6.91L55,45.34H52.88L38.21,11.53h-8L53.51,66.28,68.7,29.53h1.46L85.76,66.38l22.06-54.86H99.91" transform="translate(-25 -6.5)"/><path id="_Compound_Path_2" data-name="&lt;Compound Path&gt;" class="cls-1" d="M150.68,6.5c19.66,0,33.61,14.76,33.61,33.5s-13.94,33.5-33.61,33.5S117.07,58.74,117.07,40,130.91,6.5,150.68,6.5Zm0,63.86c17.27,0,29.76-13.3,29.76-30.36S168,9.43,150.68,9.43,120.92,22.94,120.92,40,133.31,70.36,150.68,70.36Zm0-52.24c13.32,0,22.06,9.63,22.06,21.88S164,62.19,150.68,62.19,128.62,52.25,128.62,40,137.26,18.12,150.68,18.12Zm0,40.83c11,0,18.1-8.38,18.1-18.95s-7.08-18.95-18.1-18.95S132.58,29.43,132.58,40,139.55,58.95,150.68,58.95Z" transform="translate(-25 -6.5)"/><path id="_Compound_Path_3" data-name="&lt;Compound Path&gt;" class="cls-1" d="M196.45,8.59h26.12c13.42,0,22.16,8.17,22.16,20,0,11-5.51,17.17-14.77,19.47l16.86,23.35H227.67L211.75,48V71.41H196.45ZM207.9,68.48V46h6.87l15.29,22.51h10.3L224.75,46.81v-.94c10.61-1.26,16.13-6.6,16.13-16.65,0-10.78-7.91-17.69-18.31-17.69H200.3v57Zm0-49.73h15.71a9.77,9.77,0,0,1,10,9.84c0,5.55-3.85,10.15-9.57,10.15H207.9ZM224,35.81c3.43,0,5.72-3.56,5.72-7.22s-2.71-6.91-6.14-6.91H211.75V35.81Z" transform="translate(-25 -6.5)"/><path id="_Compound_Path_4" data-name="&lt;Compound Path&gt;" class="cls-1" d="M256.07,8.59h15.29V58.22h27.16V71.41H256.07Zm38.6,59.88V61.15H267.51V11.53h-7.6v57Z" transform="translate(-25 -6.5)"/><path id="_Compound_Path_5" data-name="&lt;Compound Path&gt;" class="cls-1" d="M307.67,8.59h21.74c18.42,0,32.67,13.61,32.67,31.3,0,16.75-12.69,31.51-32.67,31.51H307.67Zm21.74,59.88c17.59,0,28.82-13.4,28.82-28.58,0-16-12.59-28.37-28.82-28.37h-17.9v57Zm-10.3-48.89h10c13.11,0,21.12,8.9,21.12,20.31,0,12.35-9.16,20.41-21.12,20.41h-10Zm10,37.79c9.78,0,17.27-6.91,17.27-17.48,0-9.74-6.55-17.38-17.27-17.38H323V57.38Z" transform="translate(-25 -6.5)"/><path id="_Compound_Path_6" data-name="&lt;Compound Path&gt;" class="cls-1" d="M401.1,8.59h26.12c13.42,0,22.16,8.17,22.16,20,0,11-5.51,17.17-14.77,19.47l16.86,23.35H432.31L416.39,48V71.41H401.1Zm11.44,59.88V46h6.87L434.7,68.48H445L429.4,46.81v-.94c10.61-1.26,16.13-6.6,16.13-16.65,0-10.78-7.91-17.69-18.31-17.69H404.95v57Zm0-49.73h15.71a9.77,9.77,0,0,1,10,9.84c0,5.55-3.85,10.15-9.57,10.15H412.54Zm16.13,17.06c3.43,0,5.72-3.56,5.72-7.22s-2.71-6.91-6.14-6.91H416.39V35.81Z" transform="translate(-25 -6.5)"/><path id="_Compound_Path_7" data-name="&lt;Compound Path&gt;" class="cls-1" d="M460.74,8.59H502V22.2H476V33.51h24v13.4H476V58.22h27.16V71.41H460.74Zm38.6,59.88V61.15H472.18V44h24V36.44h-24V19.27h26V11.53H464.59v57Z" transform="translate(-25 -6.5)"/><path id="_Compound_Path_8" data-name="&lt;Compound Path&gt;" class="cls-1" d="M546.45,6.5c11.86,0,20.08,4.5,26.74,11.52L562.68,28.07a23.13,23.13,0,0,0-16.23-7c-11.13,0-18.31,8.37-18.31,18.95s7.18,18.95,18.31,18.95a23.14,23.14,0,0,0,16.23-7l10.2,10A35.35,35.35,0,0,1,546.45,73.5c-19.77,0-33.81-14.76-33.81-33.5S526.68,6.5,546.45,6.5Zm0,64.07c9.16,0,16-2.93,21.85-8.38l-5.93-6.07a24.57,24.57,0,0,1-15.92,5.76c-13.42,0-22.26-9.63-22.26-21.88S533,18.12,546.45,18.12a26.71,26.71,0,0,1,16.13,5.65L568.51,18c-5.51-5.65-12.69-8.59-22.06-8.59-17.38,0-30,13.51-30,30.57S529.07,70.57,546.45,70.57Z" transform="translate(-25 -6.5)"/><path id="_Compound_Path_9" data-name="&lt;Compound Path&gt;" class="cls-1" d="M613.25,6.5c19.66,0,33.61,14.76,33.61,33.5s-13.94,33.5-33.61,33.5S579.65,58.74,579.65,40,593.48,6.5,613.25,6.5Zm0,63.86C630.52,70.36,643,57.06,643,40S630.52,9.43,613.25,9.43,583.49,22.94,583.49,40,595.88,70.36,613.25,70.36Zm0-52.24c13.32,0,22.06,9.63,22.06,21.88s-8.74,22.19-22.06,22.19S591.19,52.25,591.19,40,599.83,18.12,613.25,18.12Zm0,40.83c11,0,18.1-8.38,18.1-18.95s-7.08-18.95-18.1-18.95S595.15,29.43,595.15,40,602.12,58.95,613.25,58.95Z" transform="translate(-25 -6.5)"/><path id="_Compound_Path_10" data-name="&lt;Compound Path&gt;" class="cls-1" d="M659,8.59h26.12c13.42,0,22.16,8.17,22.16,20,0,11-5.51,17.17-14.77,19.47l16.86,23.35H690.24L674.32,48V71.41H659Zm11.44,59.88V46h6.87l15.29,22.51h10.3L687.33,46.81v-.94c10.61-1.26,16.13-6.6,16.13-16.65,0-10.78-7.91-17.69-18.31-17.69H662.88v57Zm0-49.73h15.71a9.77,9.77,0,0,1,10,9.84c0,5.55-3.85,10.15-9.57,10.15H670.47ZM686.6,35.81c3.43,0,5.72-3.56,5.72-7.22s-2.71-6.91-6.14-6.91H674.32V35.81Z" transform="translate(-25 -6.5)"/><path id="_Compound_Path_11" data-name="&lt;Compound Path&gt;" class="cls-1" d="M718.67,8.59h21.74c18.42,0,32.67,13.61,32.67,31.3,0,16.75-12.69,31.51-32.67,31.51H718.67Zm21.74,59.88c17.59,0,28.82-13.4,28.82-28.58,0-16-12.59-28.37-28.82-28.37h-17.9v57Zm-10.3-48.89h10c13.11,0,21.12,8.9,21.12,20.31,0,12.35-9.16,20.41-21.12,20.41h-10Zm10,37.79c9.78,0,17.27-6.91,17.27-17.48,0-9.74-6.55-17.38-17.27-17.38H734V57.38Z" transform="translate(-25 -6.5)"/><path id="_Compound_Path_12" data-name="&lt;Compound Path&gt;" class="cls-1" d="M797.43,53a6.53,6.53,0,0,0,6.45,6.59c3.85,0,6.24-2.2,6.24-5.44,0-4.71-6.14-6.07-11.24-7.85-10.51-3.77-16.34-8.69-16.34-19.47,0-11.1,9.47-20.31,21.23-20.31C817.61,6.5,824.17,15.4,825,27H810.64c0-3.56-2.18-6.49-6.45-6.49-3.33,0-6.55,2-6.55,6.07,0,4.71,5.72,5.55,11,7.12C819.8,37.07,825,43.35,825,53.19c0,11.1-9.36,20.31-21.12,20.31-13.63,0-21.33-9.21-21.33-20.52Zm6.45,17.59a17.55,17.55,0,0,0,17.58-17.38c0-10.57-6.24-14.45-15.82-17.17-6.14-1.78-11.44-3.25-11.44-9.42,0-5.44,4.06-9,9.68-9,6.45,0,8.64,3.87,9.57,6.49h7.8c-.63-6.18-5.2-14.66-17.38-14.66-9.68,0-17.79,7.85-17.79,17.38,0,7.75,2.91,12.67,14.36,16.75,5.93,2.2,13.11,3.77,13.11,10.57,0,5.55-4.79,8.37-9.68,8.37-5.31-.1-8.64-3.14-9.57-6.59h-8.12C786.4,63.76,794,70.57,803.88,70.57Z" transform="translate(-25 -6.5)"/></g></svg>