<svg id="Layer_1" data-name="Layer 1" xmlns="http://www.w3.org/2000/svg" viewBox="0 0 166.5 67"><defs><style>.cls-1{fill:#010101;}</style></defs><title>WR_half_logo_a_v1</title><g id="_Group_" data-name="&lt;Group&gt;"><path id="_Compound_Path_" data-name="&lt;Compound Path&gt;" class="cls-1" d="M4.25,4H20.9L34,34.58l7.89-20.32L45.87,4h8.34l13,30.47L79.08,4H95.62l-27,67H66.42l-16-37.39L35,71H32.9ZM66.53,42.15,51.29,7H48.76L46,14.16,35.39,41.93H33.23L18,7H9.66L33.88,63.54,49.66,25.61h1.51l16.22,38L90.32,7H82.1" transform="translate(-4.25 -4)"/><path id="_Compound_Path_2" data-name="&lt;Compound Path&gt;" class="cls-1" d="M118.42,4h27.14c13.95,0,23,8.43,23,20.64,0,11.35-5.73,17.72-15.35,20.1l17.52,24.1H150.86L134.31,44.63V68.84h-15.9Zm28.65,28.1c3.57,0,5.95-3.67,5.95-7.46s-2.81-7.13-6.38-7.13H134.31V32.1Z" transform="translate(-4.25 -4)"/></g></svg>